<?xml version="1.0" encoding="UTF-8" standalone="no"?>
<!DOCTYPE svg PUBLIC "-//W3C//DTD SVG 1.1//EN"
 "http://www.w3.org/Graphics/SVG/1.1/DTD/svg11.dtd">
<!-- Generated by graphviz version 2.38.0 (20140413.2041)
 -->
<!-- Title: G Pages: 1 -->
<svg width="510pt" height="700pt"
 viewBox="0.00 0.00 510.08 700.00" xmlns="http://www.w3.org/2000/svg" xmlns:xlink="http://www.w3.org/1999/xlink">
<g id="graph0" class="graph" transform="scale(1 1) rotate(0) translate(4 696)">
<title>G</title>
<polygon fill="white" stroke="none" points="-4,4 -4,-696 506.079,-696 506.079,4 -4,4"/>
<!-- A0 -->
<g id="node1" class="node"><title>A0</title>
<polygon fill="none" stroke="black" points="1.42109e-14,-206.5 1.42109e-14,-390.5 96.359,-390.5 96.359,-206.5 1.42109e-14,-206.5"/>
<text text-anchor="middle" x="48.1795" y="-377.5" font-family="Helvetica,sans-Serif" font-size="10.00">User</text>
<polyline fill="none" stroke="black" points="1.42109e-14,-370.5 96.359,-370.5 "/>
<text text-anchor="middle" x="48.1795" y="-357.5" font-family="Helvetica,sans-Serif" font-size="10.00">id</text>
<text text-anchor="middle" x="48.1795" y="-345.5" font-family="Helvetica,sans-Serif" font-size="10.00">username</text>
<text text-anchor="middle" x="48.1795" y="-333.5" font-family="Helvetica,sans-Serif" font-size="10.00">password</text>
<text text-anchor="middle" x="48.1795" y="-321.5" font-family="Helvetica,sans-Serif" font-size="10.00">name</text>
<text text-anchor="middle" x="48.1795" y="-309.5" font-family="Helvetica,sans-Serif" font-size="10.00">surname</text>
<text text-anchor="middle" x="48.1795" y="-297.5" font-family="Helvetica,sans-Serif" font-size="10.00">email</text>
<text text-anchor="middle" x="48.1795" y="-285.5" font-family="Helvetica,sans-Serif" font-size="10.00">phone</text>
<text text-anchor="middle" x="48.1795" y="-273.5" font-family="Helvetica,sans-Serif" font-size="10.00">address</text>
<text text-anchor="middle" x="48.1795" y="-261.5" font-family="Helvetica,sans-Serif" font-size="10.00">postcode</text>
<text text-anchor="middle" x="48.1795" y="-249.5" font-family="Helvetica,sans-Serif" font-size="10.00">document_type</text>
<text text-anchor="middle" x="48.1795" y="-237.5" font-family="Helvetica,sans-Serif" font-size="10.00">document_id</text>
<text text-anchor="middle" x="48.1795" y="-225.5" font-family="Helvetica,sans-Serif" font-size="10.00">date_of_birth</text>
<text text-anchor="middle" x="48.1795" y="-213.5" font-family="Helvetica,sans-Serif" font-size="10.00">is_male</text>
</g>
<!-- A1 -->
<g id="node2" class="node"><title>A1</title>
<polygon fill="none" stroke="black" points="195.618,-441.5 195.618,-477.5 254.741,-477.5 254.741,-441.5 195.618,-441.5"/>
<text text-anchor="middle" x="225.18" y="-456.5" font-family="Helvetica,sans-Serif" font-size="10.00">Patient</text>
</g>
<!-- A1&#45;&gt;A0 -->
<g id="edge1" class="edge"><title>A1&#45;&gt;A0</title>
<path fill="none" stroke="black" d="M186.605,-439.455C156.63,-424.176 118.057,-403.314 105.18,-391 102.204,-388.154 99.3183,-385.122 96.5299,-381.956"/>
<polygon fill="none" stroke="black" points="185.091,-442.611 195.594,-444.002 188.25,-436.365 185.091,-442.611"/>
</g>
<!-- A6 -->
<g id="node7" class="node"><title>A6</title>
<polygon fill="none" stroke="black" points="200.115,-266.5 200.115,-330.5 284.244,-330.5 284.244,-266.5 200.115,-266.5"/>
<text text-anchor="middle" x="242.18" y="-317.5" font-family="Helvetica,sans-Serif" font-size="10.00">Appointment</text>
<polyline fill="none" stroke="black" points="200.115,-310.5 284.244,-310.5 "/>
<text text-anchor="middle" x="242.18" y="-297.5" font-family="Helvetica,sans-Serif" font-size="10.00">start_time</text>
<text text-anchor="middle" x="242.18" y="-285.5" font-family="Helvetica,sans-Serif" font-size="10.00">location</text>
<text text-anchor="middle" x="242.18" y="-273.5" font-family="Helvetica,sans-Serif" font-size="10.00">notes</text>
</g>
<!-- A1&#45;&gt;A6 -->
<g id="edge6" class="edge"><title>A1&#45;&gt;A6</title>
<path fill="none" stroke="black" d="M226.999,-441.484C229.825,-415.047 235.315,-363.706 238.86,-330.546"/>
<text text-anchor="middle" x="245.338" y="-346.468" font-family="Helvetica,sans-Serif" font-size="10.00">*</text>
<text text-anchor="middle" x="220.521" y="-419.562" font-family="Helvetica,sans-Serif" font-size="10.00">0..1</text>
</g>
<!-- A8 -->
<g id="node9" class="node"><title>A8</title>
<polygon fill="none" stroke="black" points="302.002,-272.5 302.002,-324.5 398.358,-324.5 398.358,-272.5 302.002,-272.5"/>
<text text-anchor="middle" x="350.18" y="-311.5" font-family="Helvetica,sans-Serif" font-size="10.00">Prescription</text>
<polyline fill="none" stroke="black" points="302.002,-304.5 398.358,-304.5 "/>
<text text-anchor="middle" x="350.18" y="-291.5" font-family="Helvetica,sans-Serif" font-size="10.00">expiration_date</text>
<text text-anchor="middle" x="350.18" y="-279.5" font-family="Helvetica,sans-Serif" font-size="10.00">extended</text>
</g>
<!-- A1&#45;&gt;A8 -->
<g id="edge12" class="edge"><title>A1&#45;&gt;A8</title>
<path fill="none" stroke="black" d="M244.863,-441.252C259.142,-428.217 278.454,-409.469 293.18,-391 309.981,-369.928 325.916,-343.611 336.643,-324.616"/>
<text text-anchor="middle" x="335" y="-341.549" font-family="Helvetica,sans-Serif" font-size="10.00">*</text>
<text text-anchor="middle" x="252.469" y="-419.755" font-family="Helvetica,sans-Serif" font-size="10.00">1</text>
</g>
<!-- A12 -->
<g id="node13" class="node"><title>A12</title>
<polygon fill="none" stroke="black" points="113.897,-278.5 113.897,-318.5 182.462,-318.5 182.462,-278.5 113.897,-278.5"/>
<text text-anchor="middle" x="148.18" y="-305.5" font-family="Helvetica,sans-Serif" font-size="10.00">Message</text>
<polyline fill="none" stroke="black" points="113.897,-298.5 182.462,-298.5 "/>
<text text-anchor="middle" x="148.18" y="-285.5" font-family="Helvetica,sans-Serif" font-size="10.00">message</text>
</g>
<!-- A1&#45;&gt;A12 -->
<g id="edge18" class="edge"><title>A1&#45;&gt;A12</title>
<path fill="none" stroke="black" d="M216.386,-441.363C209.443,-427.758 199.563,-408.225 191.18,-391 179.12,-366.222 165.679,-337.421 157.087,-318.851"/>
<text text-anchor="middle" x="172.377" y="-328.745" font-family="Helvetica,sans-Serif" font-size="10.00">*</text>
<text text-anchor="middle" x="200.625" y="-426.051" font-family="Helvetica,sans-Serif" font-size="10.00">1</text>
</g>
<!-- A2 -->
<g id="node3" class="node"><title>A2</title>
<polygon fill="none" stroke="black" points="254.457,-655.5 254.457,-691.5 311.902,-691.5 311.902,-655.5 254.457,-655.5"/>
<text text-anchor="middle" x="283.18" y="-670.5" font-family="Helvetica,sans-Serif" font-size="10.00">Doctor</text>
</g>
<!-- A2&#45;&gt;A0 -->
<g id="edge2" class="edge"><title>A2&#45;&gt;A0</title>
<path fill="none" stroke="black" d="M244.739,-659.078C181.517,-634.593 57.9402,-575.97 11.1795,-478 -1.70316,-451.009 -0.0329897,-419.622 7.20137,-390.762"/>
<polygon fill="none" stroke="black" points="243.755,-662.448 254.346,-662.715 246.233,-655.901 243.755,-662.448"/>
</g>
<!-- A2&#45;&gt;A6 -->
<g id="edge7" class="edge"><title>A2&#45;&gt;A6</title>
<path fill="none" stroke="black" d="M282.196,-655.323C279.901,-616.855 273.656,-520.891 264.18,-441 259.655,-402.857 252.579,-359.215 247.679,-330.604"/>
<text text-anchor="middle" x="259.046" y="-344.06" font-family="Helvetica,sans-Serif" font-size="10.00">*</text>
<text text-anchor="middle" x="272.654" y="-634.746" font-family="Helvetica,sans-Serif" font-size="10.00">0..1</text>
</g>
<!-- A7 -->
<g id="node8" class="node"><title>A7</title>
<polygon fill="none" stroke="black" points="416.28,-218.5 416.28,-378.5 502.079,-378.5 502.079,-218.5 416.28,-218.5"/>
<text text-anchor="middle" x="459.18" y="-365.5" font-family="Helvetica,sans-Serif" font-size="10.00">Schedule</text>
<polyline fill="none" stroke="black" points="416.28,-358.5 502.079,-358.5 "/>
<text text-anchor="middle" x="459.18" y="-345.5" font-family="Helvetica,sans-Serif" font-size="10.00">start_time</text>
<text text-anchor="middle" x="459.18" y="-333.5" font-family="Helvetica,sans-Serif" font-size="10.00">duration</text>
<text text-anchor="middle" x="459.18" y="-321.5" font-family="Helvetica,sans-Serif" font-size="10.00">start_date</text>
<text text-anchor="middle" x="459.18" y="-309.5" font-family="Helvetica,sans-Serif" font-size="10.00">end_date</text>
<text text-anchor="middle" x="459.18" y="-297.5" font-family="Helvetica,sans-Serif" font-size="10.00">mon:boolean</text>
<text text-anchor="middle" x="459.18" y="-285.5" font-family="Helvetica,sans-Serif" font-size="10.00">tue:boolean</text>
<text text-anchor="middle" x="459.18" y="-273.5" font-family="Helvetica,sans-Serif" font-size="10.00">wed:boolean</text>
<text text-anchor="middle" x="459.18" y="-261.5" font-family="Helvetica,sans-Serif" font-size="10.00">thu:boolean</text>
<text text-anchor="middle" x="459.18" y="-249.5" font-family="Helvetica,sans-Serif" font-size="10.00">fri:boolean</text>
<text text-anchor="middle" x="459.18" y="-237.5" font-family="Helvetica,sans-Serif" font-size="10.00">sat:boolean</text>
<text text-anchor="middle" x="459.18" y="-225.5" font-family="Helvetica,sans-Serif" font-size="10.00">sun:boolean</text>
</g>
<!-- A2&#45;&gt;A7 -->
<g id="edge9" class="edge"><title>A2&#45;&gt;A7</title>
<path fill="none" stroke="black" d="M307.156,-655.44C323.027,-643.045 343.228,-624.992 356.18,-605 401.448,-535.124 428.885,-443.307 443.929,-378.639"/>
<text text-anchor="middle" x="447.871" y="-395.247" font-family="Helvetica,sans-Serif" font-size="10.00">*</text>
<text text-anchor="middle" x="316.073" y="-634.538" font-family="Helvetica,sans-Serif" font-size="10.00">1</text>
</g>
<!-- A2&#45;&gt;A8 -->
<g id="edge11" class="edge"><title>A2&#45;&gt;A8</title>
<path fill="none" stroke="black" d="M294.323,-655.466C314.997,-622.73 358.602,-548.054 374.18,-478 386.193,-423.974 370.121,-359.325 359.058,-324.57"/>
<text text-anchor="middle" x="372.424" y="-336.447" font-family="Helvetica,sans-Serif" font-size="10.00">*</text>
<text text-anchor="middle" x="296.69" y="-632.607" font-family="Helvetica,sans-Serif" font-size="10.00">1</text>
</g>
<!-- A11 -->
<g id="node12" class="node"><title>A11</title>
<polygon fill="none" stroke="black" points="177.444,-528.5 177.444,-604.5 254.915,-604.5 254.915,-528.5 177.444,-528.5"/>
<text text-anchor="middle" x="216.18" y="-591.5" font-family="Helvetica,sans-Serif" font-size="10.00">Test</text>
<polyline fill="none" stroke="black" points="177.444,-584.5 254.915,-584.5 "/>
<text text-anchor="middle" x="216.18" y="-571.5" font-family="Helvetica,sans-Serif" font-size="10.00">date_taken</text>
<text text-anchor="middle" x="216.18" y="-559.5" font-family="Helvetica,sans-Serif" font-size="10.00">hospital</text>
<text text-anchor="middle" x="216.18" y="-547.5" font-family="Helvetica,sans-Serif" font-size="10.00">disease</text>
<text text-anchor="middle" x="216.18" y="-535.5" font-family="Helvetica,sans-Serif" font-size="10.00">result</text>
</g>
<!-- A2&#45;&gt;A11 -->
<g id="edge17" class="edge"><title>A2&#45;&gt;A11</title>
<path fill="none" stroke="black" d="M272.116,-655.161C263.419,-641.531 250.987,-622.05 240.052,-604.912"/>
<text text-anchor="middle" x="256.927" y="-612.646" font-family="Helvetica,sans-Serif" font-size="10.00">*</text>
<text text-anchor="middle" x="255.24" y="-641.428" font-family="Helvetica,sans-Serif" font-size="10.00">1</text>
</g>
<!-- A3 -->
<g id="node4" class="node"><title>A3</title>
<polygon fill="none" stroke="black" points="310.846,-441.5 310.846,-477.5 365.513,-477.5 365.513,-441.5 310.846,-441.5"/>
<text text-anchor="middle" x="338.18" y="-456.5" font-family="Helvetica,sans-Serif" font-size="10.00">Nurse</text>
</g>
<!-- A3&#45;&gt;A0 -->
<g id="edge3" class="edge"><title>A3&#45;&gt;A0</title>
<path fill="none" stroke="black" d="M300.967,-449.279C239.264,-433.759 120.966,-402.947 105.18,-391 102.195,-388.741 99.3285,-386.277 96.5803,-383.653"/>
<polygon fill="none" stroke="black" points="300.167,-452.687 310.718,-451.723 301.869,-445.897 300.167,-452.687"/>
</g>
<!-- A3&#45;&gt;A6 -->
<g id="edge8" class="edge"><title>A3&#45;&gt;A6</title>
<path fill="none" stroke="black" d="M326.139,-441.264C316.846,-427.769 303.823,-408.429 293.18,-391 281.142,-371.288 268.496,-348.615 258.808,-330.771"/>
<text text-anchor="middle" x="274.903" y="-339.644" font-family="Helvetica,sans-Serif" font-size="10.00">*</text>
<text text-anchor="middle" x="308.913" y="-428.102" font-family="Helvetica,sans-Serif" font-size="10.00">0..1</text>
</g>
<!-- A3&#45;&gt;A7 -->
<g id="edge10" class="edge"><title>A3&#45;&gt;A7</title>
<path fill="none" stroke="black" d="M358.4,-441.478C373.013,-428.555 392.654,-409.849 407.18,-391 410.191,-387.092 413.145,-382.991 416.022,-378.781"/>
<text text-anchor="middle" x="412.727" y="-395.508" font-family="Helvetica,sans-Serif" font-size="10.00">*</text>
<text text-anchor="middle" x="366.28" y="-420.096" font-family="Helvetica,sans-Serif" font-size="10.00">1</text>
</g>
<!-- A3&#45;&gt;A8 -->
<g id="edge13" class="edge"><title>A3&#45;&gt;A8</title>
<path fill="none" stroke="black" d="M339.464,-441.484C341.58,-413.445 345.81,-357.391 348.276,-324.727"/>
<text text-anchor="middle" x="355.34" y="-340.438" font-family="Helvetica,sans-Serif" font-size="10.00">*</text>
<text text-anchor="middle" x="332.399" y="-419.773" font-family="Helvetica,sans-Serif" font-size="10.00">1</text>
</g>
<!-- A4 -->
<g id="node5" class="node"><title>A4</title>
<polygon fill="none" stroke="black" points="94.6745,-441.5 94.6745,-477.5 177.685,-477.5 177.685,-441.5 94.6745,-441.5"/>
<text text-anchor="middle" x="136.18" y="-456.5" font-family="Helvetica,sans-Serif" font-size="10.00">Receptionist</text>
</g>
<!-- A4&#45;&gt;A0 -->
<g id="edge4" class="edge"><title>A4&#45;&gt;A0</title>
<path fill="none" stroke="black" d="M121.743,-432.416C114.66,-419.618 105.674,-403.382 96.4355,-386.69"/>
<polygon fill="none" stroke="black" points="118.857,-434.43 126.762,-441.484 124.982,-431.04 118.857,-434.43"/>
</g>
<!-- A4&#45;&gt;A12 -->
<g id="edge19" class="edge"><title>A4&#45;&gt;A12</title>
<path fill="none" stroke="black" d="M137.464,-441.484C139.719,-411.602 144.375,-349.903 146.738,-318.605"/>
<text text-anchor="middle" x="153.802" y="-334.316" font-family="Helvetica,sans-Serif" font-size="10.00">*</text>
<text text-anchor="middle" x="130.399" y="-419.773" font-family="Helvetica,sans-Serif" font-size="10.00">1</text>
</g>
<!-- A5 -->
<g id="node6" class="node"><title>A5</title>
<polygon fill="none" stroke="black" points="20.012,-441.5 20.012,-477.5 76.347,-477.5 76.347,-441.5 20.012,-441.5"/>
<text text-anchor="middle" x="48.1795" y="-456.5" font-family="Helvetica,sans-Serif" font-size="10.00">Admin</text>
</g>
<!-- A5&#45;&gt;A0 -->
<g id="edge5" class="edge"><title>A5&#45;&gt;A0</title>
<path fill="none" stroke="black" d="M48.1795,-431.28C48.1795,-419.72 48.1795,-405.509 48.1795,-390.745"/>
<polygon fill="none" stroke="black" points="44.6796,-431.484 48.1795,-441.484 51.6796,-431.484 44.6796,-431.484"/>
</g>
<!-- A10 -->
<g id="node11" class="node"><title>A10</title>
<polygon fill="none" stroke="black" points="306.45,-103.5 306.45,-155.5 393.91,-155.5 393.91,-103.5 306.45,-103.5"/>
<text text-anchor="middle" x="350.18" y="-142.5" font-family="Helvetica,sans-Serif" font-size="10.00">Endorsement</text>
<polyline fill="none" stroke="black" points="306.45,-135.5 393.91,-135.5 "/>
<text text-anchor="middle" x="350.18" y="-122.5" font-family="Helvetica,sans-Serif" font-size="10.00">dose</text>
<text text-anchor="middle" x="350.18" y="-110.5" font-family="Helvetica,sans-Serif" font-size="10.00">quantity</text>
</g>
<!-- A8&#45;&gt;A10 -->
<g id="edge14" class="edge"><title>A8&#45;&gt;A10</title>
<path fill="none" stroke="black" d="M350.18,-272.498C350.18,-241.016 350.18,-187.236 350.18,-155.673"/>
<text text-anchor="middle" x="358.632" y="-170.799" font-family="Helvetica,sans-Serif" font-size="10.00">*</text>
<text text-anchor="middle" x="341.727" y="-251.372" font-family="Helvetica,sans-Serif" font-size="10.00">1</text>
</g>
<!-- A9 -->
<g id="node10" class="node"><title>A9</title>
<polygon fill="none" stroke="black" points="312.009,-0.5 312.009,-52.5 388.35,-52.5 388.35,-0.5 312.009,-0.5"/>
<text text-anchor="middle" x="350.18" y="-39.5" font-family="Helvetica,sans-Serif" font-size="10.00">Medication</text>
<polyline fill="none" stroke="black" points="312.009,-32.5 388.35,-32.5 "/>
<text text-anchor="middle" x="350.18" y="-19.5" font-family="Helvetica,sans-Serif" font-size="10.00">name</text>
<text text-anchor="middle" x="350.18" y="-7.5" font-family="Helvetica,sans-Serif" font-size="10.00">number</text>
</g>
<!-- A10&#45;&gt;A9 -->
<g id="edge15" class="edge"><title>A10&#45;&gt;A9</title>
<path fill="none" stroke="black" d="M350.18,-103.274C350.18,-87.8488 350.18,-68.1849 350.18,-52.7545"/>
<text text-anchor="middle" x="358.632" y="-67.8806" font-family="Helvetica,sans-Serif" font-size="10.00">*</text>
<text text-anchor="middle" x="341.727" y="-82.1478" font-family="Helvetica,sans-Serif" font-size="10.00">1</text>
</g>
<!-- A11&#45;&gt;A1 -->
<g id="edge16" class="edge"><title>A11&#45;&gt;A1</title>
<path fill="none" stroke="black" d="M219.353,-528.481C220.84,-511.122 222.541,-491.284 223.719,-477.537"/>
<text text-anchor="middle" x="230.593" y="-493.319" font-family="Helvetica,sans-Serif" font-size="10.00">1</text>
<text text-anchor="middle" x="212.479" y="-506.699" font-family="Helvetica,sans-Serif" font-size="10.00">*</text>
</g>
</g>
</svg>
