<?xml version="1.0" encoding="UTF-8" standalone="no"?>
<!DOCTYPE svg PUBLIC "-//W3C//DTD SVG 1.1//EN"
 "http://www.w3.org/Graphics/SVG/1.1/DTD/svg11.dtd">
<!-- Generated by graphviz version 2.38.0 (20140413.2041)
 -->
<!-- Title: G Pages: 1 -->
<svg width="600pt" height="496pt"
 viewBox="0.00 0.00 600.28 496.00" xmlns="http://www.w3.org/2000/svg" xmlns:xlink="http://www.w3.org/1999/xlink">
<g id="graph0" class="graph" transform="scale(1 1) rotate(0) translate(4 492)">
<title>G</title>
<polygon fill="white" stroke="none" points="-4,4 -4,-492 596.276,-492 596.276,4 -4,4"/>
<!-- A0 -->
<g id="node1" class="node"><title>A0</title>
<polygon fill="none" stroke="black" points="369.576,-226.5 369.576,-398.5 465.935,-398.5 465.935,-226.5 369.576,-226.5"/>
<text text-anchor="middle" x="417.755" y="-385.5" font-family="Helvetica,sans-Serif" font-size="10.00">User</text>
<polyline fill="none" stroke="black" points="369.576,-378.5 465.935,-378.5 "/>
<text text-anchor="middle" x="417.755" y="-365.5" font-family="Helvetica,sans-Serif" font-size="10.00">id</text>
<text text-anchor="middle" x="417.755" y="-353.5" font-family="Helvetica,sans-Serif" font-size="10.00">username</text>
<text text-anchor="middle" x="417.755" y="-341.5" font-family="Helvetica,sans-Serif" font-size="10.00">password</text>
<text text-anchor="middle" x="417.755" y="-329.5" font-family="Helvetica,sans-Serif" font-size="10.00">name</text>
<text text-anchor="middle" x="417.755" y="-317.5" font-family="Helvetica,sans-Serif" font-size="10.00">surname</text>
<text text-anchor="middle" x="417.755" y="-305.5" font-family="Helvetica,sans-Serif" font-size="10.00">email</text>
<text text-anchor="middle" x="417.755" y="-293.5" font-family="Helvetica,sans-Serif" font-size="10.00">phone</text>
<text text-anchor="middle" x="417.755" y="-281.5" font-family="Helvetica,sans-Serif" font-size="10.00">address</text>
<text text-anchor="middle" x="417.755" y="-269.5" font-family="Helvetica,sans-Serif" font-size="10.00">postcode</text>
<text text-anchor="middle" x="417.755" y="-257.5" font-family="Helvetica,sans-Serif" font-size="10.00">document_type</text>
<text text-anchor="middle" x="417.755" y="-245.5" font-family="Helvetica,sans-Serif" font-size="10.00">document_id</text>
<text text-anchor="middle" x="417.755" y="-233.5" font-family="Helvetica,sans-Serif" font-size="10.00">date_of_birth</text>
</g>
<!-- A1 -->
<g id="node2" class="node"><title>A1</title>
<polygon fill="none" stroke="black" points="247.684,-393.5 247.684,-429.5 306.807,-429.5 306.807,-393.5 247.684,-393.5"/>
<text text-anchor="middle" x="277.246" y="-408.5" font-family="Helvetica,sans-Serif" font-size="10.00">Patient</text>
</g>
<!-- A1&#45;&gt;A0 -->
<g id="edge1" class="edge"><title>A1&#45;&gt;A0</title>
<path fill="none" stroke="black" d="M313.921,-387.448C315.838,-386.119 317.733,-384.797 319.576,-383.5 335.98,-371.956 353.747,-359.086 369.548,-347.507"/>
<polygon fill="none" stroke="black" points="311.722,-384.713 305.463,-393.262 315.687,-390.482 311.722,-384.713"/>
</g>
<!-- A7 -->
<g id="node8" class="node"><title>A7</title>
<polygon fill="none" stroke="black" points="375.691,-155.5 375.691,-207.5 459.82,-207.5 459.82,-155.5 375.691,-155.5"/>
<text text-anchor="middle" x="417.755" y="-194.5" font-family="Helvetica,sans-Serif" font-size="10.00">Appointment</text>
<polyline fill="none" stroke="black" points="375.691,-187.5 459.82,-187.5 "/>
<text text-anchor="middle" x="417.755" y="-174.5" font-family="Helvetica,sans-Serif" font-size="10.00">location</text>
<text text-anchor="middle" x="417.755" y="-162.5" font-family="Helvetica,sans-Serif" font-size="10.00">date</text>
</g>
<!-- A1&#45;&gt;A7 -->
<g id="edge8" class="edge"><title>A1&#45;&gt;A7</title>
<path fill="none" stroke="black" d="M307.158,-395.744C311.805,-392.206 316.192,-388.112 319.576,-383.5 365.417,-321.039 325.082,-279.928 369.576,-216.5 371.802,-213.327 374.406,-210.325 377.228,-207.513"/>
<text text-anchor="middle" x="370.493" y="-223.345" font-family="Helvetica,sans-Serif" font-size="10.00">*</text>
<text text-anchor="middle" x="316.273" y="-374.942" font-family="Helvetica,sans-Serif" font-size="10.00">0..1</text>
</g>
<!-- A9 -->
<g id="node10" class="node"><title>A9</title>
<polygon fill="none" stroke="black" points="369.577,-423.5 369.577,-487.5 465.933,-487.5 465.933,-423.5 369.577,-423.5"/>
<text text-anchor="middle" x="417.755" y="-474.5" font-family="Helvetica,sans-Serif" font-size="10.00">Prescription</text>
<polyline fill="none" stroke="black" points="369.577,-467.5 465.933,-467.5 "/>
<text text-anchor="middle" x="417.755" y="-454.5" font-family="Helvetica,sans-Serif" font-size="10.00">dose</text>
<text text-anchor="middle" x="417.755" y="-442.5" font-family="Helvetica,sans-Serif" font-size="10.00">quantity</text>
<text text-anchor="middle" x="417.755" y="-430.5" font-family="Helvetica,sans-Serif" font-size="10.00">expiration_date</text>
</g>
<!-- A1&#45;&gt;A9 -->
<g id="edge15" class="edge"><title>A1&#45;&gt;A9</title>
<path fill="none" stroke="black" d="M306.945,-420.617C325.012,-426.356 348.763,-433.901 369.554,-440.506"/>
<text text-anchor="middle" x="349.72" y="-440.074" font-family="Helvetica,sans-Serif" font-size="10.00">owns *</text>
<text text-anchor="middle" x="326.78" y="-415.049" font-family="Helvetica,sans-Serif" font-size="10.00">is prescripted for 1</text>
</g>
<!-- A2 -->
<g id="node3" class="node"><title>A2</title>
<polygon fill="none" stroke="black" points="-2.84217e-14,-291.5 -2.84217e-14,-327.5 57.445,-327.5 57.445,-291.5 -2.84217e-14,-291.5"/>
<text text-anchor="middle" x="28.7225" y="-306.5" font-family="Helvetica,sans-Serif" font-size="10.00">Doctor</text>
</g>
<!-- A2&#45;&gt;A0 -->
<g id="edge2" class="edge"><title>A2&#45;&gt;A0</title>
<path fill="none" stroke="black" d="M67.8415,-309.795C138.947,-310.347 291.623,-311.53 369.286,-312.132"/>
<polygon fill="none" stroke="black" points="67.5838,-306.293 57.557,-309.716 67.5295,-313.293 67.5838,-306.293"/>
</g>
<!-- A2&#45;&gt;A7 -->
<g id="edge9" class="edge"><title>A2&#45;&gt;A7</title>
<path fill="none" stroke="black" d="M57.7272,-298.589C97.0388,-283.427 170.947,-255.487 234.916,-234.5 282.72,-218.816 338.335,-202.948 375.349,-192.718"/>
<text text-anchor="middle" x="360.147" y="-202.714" font-family="Helvetica,sans-Serif" font-size="10.00">*</text>
<text text-anchor="middle" x="71.6167" y="-281.198" font-family="Helvetica,sans-Serif" font-size="10.00">0..1</text>
</g>
<!-- A8 -->
<g id="node9" class="node"><title>A8</title>
<polygon fill="none" stroke="black" points="374.856,-0.5 374.856,-136.5 460.655,-136.5 460.655,-0.5 374.856,-0.5"/>
<text text-anchor="middle" x="417.755" y="-123.5" font-family="Helvetica,sans-Serif" font-size="10.00">Schedule</text>
<polyline fill="none" stroke="black" points="374.856,-116.5 460.655,-116.5 "/>
<text text-anchor="middle" x="417.755" y="-103.5" font-family="Helvetica,sans-Serif" font-size="10.00">mon:boolean</text>
<text text-anchor="middle" x="417.755" y="-91.5" font-family="Helvetica,sans-Serif" font-size="10.00">tue:boolean</text>
<text text-anchor="middle" x="417.755" y="-79.5" font-family="Helvetica,sans-Serif" font-size="10.00">wed:boolean</text>
<text text-anchor="middle" x="417.755" y="-67.5" font-family="Helvetica,sans-Serif" font-size="10.00">thu:boolean</text>
<text text-anchor="middle" x="417.755" y="-55.5" font-family="Helvetica,sans-Serif" font-size="10.00">fri:boolean</text>
<text text-anchor="middle" x="417.755" y="-43.5" font-family="Helvetica,sans-Serif" font-size="10.00">sat:boolean</text>
<text text-anchor="middle" x="417.755" y="-31.5" font-family="Helvetica,sans-Serif" font-size="10.00">sun:boolean</text>
<text text-anchor="middle" x="417.755" y="-19.5" font-family="Helvetica,sans-Serif" font-size="10.00">day_start</text>
<text text-anchor="middle" x="417.755" y="-7.5" font-family="Helvetica,sans-Serif" font-size="10.00">day_end</text>
</g>
<!-- A2&#45;&gt;A8 -->
<g id="edge11" class="edge"><title>A2&#45;&gt;A8</title>
<path fill="none" stroke="black" d="M38.2534,-291.395C61.6926,-244.087 132.231,-117.149 234.916,-69.5 279.16,-48.9694 336.232,-52.8556 374.533,-59.1647"/>
<text text-anchor="middle" x="355.356" y="-61.8429" font-family="Helvetica,sans-Serif" font-size="10.00"> works *</text>
<text text-anchor="middle" x="39.0113" y="-268.41" font-family="Helvetica,sans-Serif" font-size="10.00">1</text>
</g>
<!-- A2&#45;&gt;A9 -->
<g id="edge14" class="edge"><title>A2&#45;&gt;A9</title>
<path fill="none" stroke="black" d="M35.465,-327.834C45.2546,-355.671 68.0384,-407.852 107.445,-431.5 188.959,-480.417 305.102,-473.29 369.377,-464.147"/>
<text text-anchor="middle" x="352.456" y="-471.81" font-family="Helvetica,sans-Serif" font-size="10.00">gives *</text>
<text text-anchor="middle" x="49.6682" y="-338.915" font-family="Helvetica,sans-Serif" font-size="10.00">is prescripted by 1</text>
</g>
<!-- A11 -->
<g id="node12" class="node"><title>A11</title>
<polygon fill="none" stroke="black" points="107.445,-346.5 107.445,-422.5 184.916,-422.5 184.916,-346.5 107.445,-346.5"/>
<text text-anchor="middle" x="146.18" y="-409.5" font-family="Helvetica,sans-Serif" font-size="10.00">Test</text>
<polyline fill="none" stroke="black" points="107.445,-402.5 184.916,-402.5 "/>
<text text-anchor="middle" x="146.18" y="-389.5" font-family="Helvetica,sans-Serif" font-size="10.00">date_taken</text>
<text text-anchor="middle" x="146.18" y="-377.5" font-family="Helvetica,sans-Serif" font-size="10.00">hospital</text>
<text text-anchor="middle" x="146.18" y="-365.5" font-family="Helvetica,sans-Serif" font-size="10.00">disease</text>
<text text-anchor="middle" x="146.18" y="-353.5" font-family="Helvetica,sans-Serif" font-size="10.00">result</text>
</g>
<!-- A2&#45;&gt;A11 -->
<g id="edge17" class="edge"><title>A2&#45;&gt;A11</title>
<path fill="none" stroke="black" d="M57.6717,-327.655C72.4876,-337.28 90.9073,-349.245 107.02,-359.712"/>
<text text-anchor="middle" x="87.2152" y="-353.926" font-family="Helvetica,sans-Serif" font-size="10.00"> performs *</text>
<text text-anchor="middle" x="77.4767" y="-327.441" font-family="Helvetica,sans-Serif" font-size="10.00">is advised by 1 </text>
</g>
<!-- A3 -->
<g id="node4" class="node"><title>A3</title>
<polygon fill="none" stroke="black" points="249.913,-150.5 249.913,-186.5 304.579,-186.5 304.579,-150.5 249.913,-150.5"/>
<text text-anchor="middle" x="277.246" y="-165.5" font-family="Helvetica,sans-Serif" font-size="10.00">Nurse</text>
</g>
<!-- A3&#45;&gt;A0 -->
<g id="edge3" class="edge"><title>A3&#45;&gt;A0</title>
<path fill="none" stroke="black" d="M302.95,-194.183C321.347,-213.31 347.033,-240.014 369.347,-263.212"/>
<polygon fill="none" stroke="black" points="305.243,-191.519 295.788,-186.738 300.198,-196.371 305.243,-191.519"/>
</g>
<!-- A3&#45;&gt;A7 -->
<g id="edge10" class="edge"><title>A3&#45;&gt;A7</title>
<path fill="none" stroke="black" d="M304.625,-170.976C324.64,-172.854 352.532,-175.472 375.49,-177.627"/>
<text text-anchor="middle" x="356.654" y="-181.349" font-family="Helvetica,sans-Serif" font-size="10.00">*</text>
<text text-anchor="middle" x="323.461" y="-161.254" font-family="Helvetica,sans-Serif" font-size="10.00">0..1</text>
</g>
<!-- A3&#45;&gt;A8 -->
<g id="edge12" class="edge"><title>A3&#45;&gt;A8</title>
<path fill="none" stroke="black" d="M304.597,-150.891C309.598,-147.481 314.768,-143.908 319.576,-140.5 337.735,-127.63 357.518,-113.074 374.466,-100.434"/>
<text text-anchor="middle" x="364.975" y="-115.039" font-family="Helvetica,sans-Serif" font-size="10.00"> works *</text>
<text text-anchor="middle" x="314.799" y="-130.688" font-family="Helvetica,sans-Serif" font-size="10.00">1</text>
</g>
<!-- A4 -->
<g id="node5" class="node"><title>A4</title>
<polygon fill="none" stroke="black" points="235.741,-244.5 235.741,-280.5 318.751,-280.5 318.751,-244.5 235.741,-244.5"/>
<text text-anchor="middle" x="277.246" y="-259.5" font-family="Helvetica,sans-Serif" font-size="10.00">Receptionist</text>
</g>
<!-- A4&#45;&gt;A0 -->
<g id="edge4" class="edge"><title>A4&#45;&gt;A0</title>
<path fill="none" stroke="black" d="M328.554,-280.661C341.891,-285.475 356.243,-290.656 369.415,-295.411"/>
<polygon fill="none" stroke="black" points="329.649,-277.335 319.054,-277.231 327.272,-283.919 329.649,-277.335"/>
</g>
<!-- A5 -->
<g id="node6" class="node"><title>A5</title>
<polygon fill="none" stroke="black" points="249.078,-338.5 249.078,-374.5 305.413,-374.5 305.413,-338.5 249.078,-338.5"/>
<text text-anchor="middle" x="277.246" y="-353.5" font-family="Helvetica,sans-Serif" font-size="10.00">Admin</text>
</g>
<!-- A5&#45;&gt;A0 -->
<g id="edge5" class="edge"><title>A5&#45;&gt;A0</title>
<path fill="none" stroke="black" d="M315.503,-344.665C332.12,-339.386 351.887,-333.107 369.526,-327.503"/>
<polygon fill="none" stroke="black" points="314.082,-341.444 305.611,-347.807 316.201,-348.115 314.082,-341.444"/>
</g>
<!-- A6 -->
<g id="node7" class="node"><title>A6</title>
<polygon fill="none" stroke="black" points="234.916,-79.5 234.916,-131.5 319.576,-131.5 319.576,-79.5 234.916,-79.5"/>
<text text-anchor="middle" x="277.246" y="-118.5" font-family="Helvetica,sans-Serif" font-size="10.00">Commitment</text>
<polyline fill="none" stroke="black" points="234.916,-111.5 319.576,-111.5 "/>
<text text-anchor="middle" x="277.246" y="-98.5" font-family="Helvetica,sans-Serif" font-size="10.00">start_time</text>
<text text-anchor="middle" x="277.246" y="-86.5" font-family="Helvetica,sans-Serif" font-size="10.00">end_time</text>
</g>
<!-- A6&#45;&gt;A7 -->
<g id="edge6" class="edge"><title>A6&#45;&gt;A7</title>
<path fill="none" stroke="black" d="M328.636,-133.149C343.94,-141.546 360.575,-150.674 375.227,-158.714"/>
<polygon fill="none" stroke="black" points="330.254,-130.045 319.803,-128.303 326.887,-136.181 330.254,-130.045"/>
</g>
<!-- A6&#45;&gt;A8 -->
<g id="edge7" class="edge"><title>A6&#45;&gt;A8</title>
<path fill="none" stroke="black" d="M329.832,-91.7198C344.637,-87.7651 360.596,-83.5019 374.749,-79.7213"/>
<polygon fill="none" stroke="black" points="328.561,-88.4365 319.803,-94.3988 330.368,-95.1993 328.561,-88.4365"/>
</g>
<!-- A10 -->
<g id="node11" class="node"><title>A10</title>
<polygon fill="none" stroke="black" points="515.935,-429.5 515.935,-481.5 592.276,-481.5 592.276,-429.5 515.935,-429.5"/>
<text text-anchor="middle" x="554.105" y="-468.5" font-family="Helvetica,sans-Serif" font-size="10.00">Medication</text>
<polyline fill="none" stroke="black" points="515.935,-461.5 592.276,-461.5 "/>
<text text-anchor="middle" x="554.105" y="-448.5" font-family="Helvetica,sans-Serif" font-size="10.00">name</text>
<text text-anchor="middle" x="554.105" y="-436.5" font-family="Helvetica,sans-Serif" font-size="10.00">number</text>
</g>
<!-- A9&#45;&gt;A10 -->
<g id="edge13" class="edge"><title>A9&#45;&gt;A10</title>
<path fill="none" stroke="black" d="M466.122,-455.5C482.44,-455.5 500.471,-455.5 515.866,-455.5"/>
<text text-anchor="middle" x="497.739" y="-460.952" font-family="Helvetica,sans-Serif" font-size="10.00"> *</text>
<text text-anchor="middle" x="484.248" y="-444.048" font-family="Helvetica,sans-Serif" font-size="10.00">* </text>
</g>
<!-- A11&#45;&gt;A1 -->
<g id="edge16" class="edge"><title>A11&#45;&gt;A1</title>
<path fill="none" stroke="black" d="M185.206,-392.455C205.134,-396.624 229.144,-401.646 247.502,-405.487"/>
<text text-anchor="middle" x="228.029" y="-407.049" font-family="Helvetica,sans-Serif" font-size="10.00"> is taken by 1</text>
<text text-anchor="middle" x="204.679" y="-384.893" font-family="Helvetica,sans-Serif" font-size="10.00">takes * </text>
</g>
</g>
</svg>
