<?xml version="1.0" encoding="UTF-8" standalone="no"?>
<!DOCTYPE svg PUBLIC "-//W3C//DTD SVG 1.1//EN"
 "http://www.w3.org/Graphics/SVG/1.1/DTD/svg11.dtd">
<!-- Generated by graphviz version 2.38.0 (20140413.2041)
 -->
<!-- Title: G Pages: 1 -->
<svg width="484pt" height="505pt"
 viewBox="0.00 0.00 484.48 505.00" xmlns="http://www.w3.org/2000/svg" xmlns:xlink="http://www.w3.org/1999/xlink">
<g id="graph0" class="graph" transform="scale(1 1) rotate(0) translate(4 501)">
<title>G</title>
<polygon fill="white" stroke="none" points="-4,4 -4,-501 480.482,-501 480.482,4 -4,4"/>
<!-- A0 -->
<g id="node1" class="node"><title>A0</title>
<polygon fill="none" stroke="black" points="374.849,-226.5 374.849,-398.5 471.208,-398.5 471.208,-226.5 374.849,-226.5"/>
<text text-anchor="middle" x="423.029" y="-385.5" font-family="Helvetica,sans-Serif" font-size="10.00">User</text>
<polyline fill="none" stroke="black" points="374.849,-378.5 471.208,-378.5 "/>
<text text-anchor="middle" x="423.029" y="-365.5" font-family="Helvetica,sans-Serif" font-size="10.00">id</text>
<text text-anchor="middle" x="423.029" y="-353.5" font-family="Helvetica,sans-Serif" font-size="10.00">username</text>
<text text-anchor="middle" x="423.029" y="-341.5" font-family="Helvetica,sans-Serif" font-size="10.00">password</text>
<text text-anchor="middle" x="423.029" y="-329.5" font-family="Helvetica,sans-Serif" font-size="10.00">name</text>
<text text-anchor="middle" x="423.029" y="-317.5" font-family="Helvetica,sans-Serif" font-size="10.00">surname</text>
<text text-anchor="middle" x="423.029" y="-305.5" font-family="Helvetica,sans-Serif" font-size="10.00">email</text>
<text text-anchor="middle" x="423.029" y="-293.5" font-family="Helvetica,sans-Serif" font-size="10.00">phone</text>
<text text-anchor="middle" x="423.029" y="-281.5" font-family="Helvetica,sans-Serif" font-size="10.00">address</text>
<text text-anchor="middle" x="423.029" y="-269.5" font-family="Helvetica,sans-Serif" font-size="10.00">postcode</text>
<text text-anchor="middle" x="423.029" y="-257.5" font-family="Helvetica,sans-Serif" font-size="10.00">document_type</text>
<text text-anchor="middle" x="423.029" y="-245.5" font-family="Helvetica,sans-Serif" font-size="10.00">document_id</text>
<text text-anchor="middle" x="423.029" y="-233.5" font-family="Helvetica,sans-Serif" font-size="10.00">date_of_birth</text>
</g>
<!-- A1 -->
<g id="node2" class="node"><title>A1</title>
<polygon fill="none" stroke="black" points="247.684,-395.5 247.684,-431.5 306.807,-431.5 306.807,-395.5 247.684,-395.5"/>
<text text-anchor="middle" x="277.246" y="-410.5" font-family="Helvetica,sans-Serif" font-size="10.00">Patient</text>
</g>
<!-- A1&#45;&gt;A0 -->
<g id="edge1" class="edge"><title>A1&#45;&gt;A0</title>
<path fill="none" stroke="black" d="M313.902,-389.422C315.825,-388.099 317.725,-386.786 319.576,-385.5 337.691,-372.913 357.459,-358.895 374.757,-346.534"/>
<polygon fill="none" stroke="black" points="311.709,-386.681 305.431,-395.216 315.661,-392.459 311.709,-386.681"/>
</g>
<!-- A7 -->
<g id="node8" class="node"><title>A7</title>
<polygon fill="none" stroke="black" points="380.964,-155.5 380.964,-207.5 465.093,-207.5 465.093,-155.5 380.964,-155.5"/>
<text text-anchor="middle" x="423.029" y="-194.5" font-family="Helvetica,sans-Serif" font-size="10.00">Appointment</text>
<polyline fill="none" stroke="black" points="380.964,-187.5 465.093,-187.5 "/>
<text text-anchor="middle" x="423.029" y="-174.5" font-family="Helvetica,sans-Serif" font-size="10.00">location</text>
<text text-anchor="middle" x="423.029" y="-162.5" font-family="Helvetica,sans-Serif" font-size="10.00">date</text>
</g>
<!-- A1&#45;&gt;A7 -->
<g id="edge8" class="edge"><title>A1&#45;&gt;A7</title>
<path fill="none" stroke="black" d="M307.171,-397.753C311.816,-394.214 316.199,-390.117 319.576,-385.5 365.818,-322.277 323.112,-279.56 369.576,-216.5 372.758,-212.181 376.644,-208.234 380.847,-204.673"/>
<text text-anchor="middle" x="372.647" y="-219.915" font-family="Helvetica,sans-Serif" font-size="10.00">*</text>
<text text-anchor="middle" x="316.28" y="-376.948" font-family="Helvetica,sans-Serif" font-size="10.00">0..1</text>
</g>
<!-- A9 -->
<g id="node10" class="node"><title>A9</title>
<polygon fill="none" stroke="black" points="369.576,-420.5 369.576,-496.5 476.482,-496.5 476.482,-420.5 369.576,-420.5"/>
<text text-anchor="middle" x="423.029" y="-483.5" font-family="Helvetica,sans-Serif" font-size="10.00">Prescription</text>
<polyline fill="none" stroke="black" points="369.576,-476.5 476.482,-476.5 "/>
<text text-anchor="middle" x="423.029" y="-463.5" font-family="Helvetica,sans-Serif" font-size="10.00">medication_name</text>
<text text-anchor="middle" x="423.029" y="-451.5" font-family="Helvetica,sans-Serif" font-size="10.00">dose</text>
<text text-anchor="middle" x="423.029" y="-439.5" font-family="Helvetica,sans-Serif" font-size="10.00">quantity</text>
<text text-anchor="middle" x="423.029" y="-427.5" font-family="Helvetica,sans-Serif" font-size="10.00">expiration_date</text>
</g>
<!-- A1&#45;&gt;A9 -->
<g id="edge14" class="edge"><title>A1&#45;&gt;A9</title>
<path fill="none" stroke="black" d="M306.997,-422.498C324.863,-428.09 348.369,-435.446 369.473,-442.051"/>
<text text-anchor="middle" x="349.65" y="-441.704" font-family="Helvetica,sans-Serif" font-size="10.00">owns *</text>
<text text-anchor="middle" x="326.82" y="-416.846" font-family="Helvetica,sans-Serif" font-size="10.00">is prescripted for 1</text>
</g>
<!-- A2 -->
<g id="node3" class="node"><title>A2</title>
<polygon fill="none" stroke="black" points="-2.84217e-14,-293.5 -2.84217e-14,-329.5 57.445,-329.5 57.445,-293.5 -2.84217e-14,-293.5"/>
<text text-anchor="middle" x="28.7225" y="-308.5" font-family="Helvetica,sans-Serif" font-size="10.00">Doctor</text>
</g>
<!-- A2&#45;&gt;A0 -->
<g id="edge2" class="edge"><title>A2&#45;&gt;A0</title>
<path fill="none" stroke="black" d="M68.0587,-311.598C140.271,-311.782 296.241,-312.179 374.793,-312.38"/>
<polygon fill="none" stroke="black" points="67.6306,-308.097 57.6217,-311.571 67.6127,-315.097 67.6306,-308.097"/>
</g>
<!-- A2&#45;&gt;A7 -->
<g id="edge9" class="edge"><title>A2&#45;&gt;A7</title>
<path fill="none" stroke="black" d="M57.7339,-300.609C97.0535,-285.472 170.971,-257.56 234.916,-236.5 284.764,-220.083 342.843,-203.383 380.913,-192.762"/>
<text text-anchor="middle" x="365.741" y="-202.794" font-family="Helvetica,sans-Serif" font-size="10.00">*</text>
<text text-anchor="middle" x="71.6315" y="-283.227" font-family="Helvetica,sans-Serif" font-size="10.00">0..1</text>
</g>
<!-- A8 -->
<g id="node9" class="node"><title>A8</title>
<polygon fill="none" stroke="black" points="373.744,-0.5 373.744,-136.5 472.313,-136.5 472.313,-0.5 373.744,-0.5"/>
<text text-anchor="middle" x="423.029" y="-123.5" font-family="Helvetica,sans-Serif" font-size="10.00">Work_Schedule</text>
<polyline fill="none" stroke="black" points="373.744,-116.5 472.313,-116.5 "/>
<text text-anchor="middle" x="423.029" y="-103.5" font-family="Helvetica,sans-Serif" font-size="10.00">mon:boolean</text>
<text text-anchor="middle" x="423.029" y="-91.5" font-family="Helvetica,sans-Serif" font-size="10.00">tue:boolean</text>
<text text-anchor="middle" x="423.029" y="-79.5" font-family="Helvetica,sans-Serif" font-size="10.00">wed:boolean</text>
<text text-anchor="middle" x="423.029" y="-67.5" font-family="Helvetica,sans-Serif" font-size="10.00">thu:boolean</text>
<text text-anchor="middle" x="423.029" y="-55.5" font-family="Helvetica,sans-Serif" font-size="10.00">fri:boolean</text>
<text text-anchor="middle" x="423.029" y="-43.5" font-family="Helvetica,sans-Serif" font-size="10.00">sat:boolean</text>
<text text-anchor="middle" x="423.029" y="-31.5" font-family="Helvetica,sans-Serif" font-size="10.00">sun:boolean</text>
<text text-anchor="middle" x="423.029" y="-19.5" font-family="Helvetica,sans-Serif" font-size="10.00">day_start</text>
<text text-anchor="middle" x="423.029" y="-7.5" font-family="Helvetica,sans-Serif" font-size="10.00">day_end</text>
</g>
<!-- A2&#45;&gt;A8 -->
<g id="edge11" class="edge"><title>A2&#45;&gt;A8</title>
<path fill="none" stroke="black" d="M38.2817,-293.456C61.7902,-246.296 132.483,-119.689 234.916,-71.5 278.426,-51.0311 334.166,-53.2267 373.453,-58.7222"/>
<text text-anchor="middle" x="354.419" y="-61.8627" font-family="Helvetica,sans-Serif" font-size="10.00"> works *</text>
<text text-anchor="middle" x="39.0859" y="-270.472" font-family="Helvetica,sans-Serif" font-size="10.00">1</text>
</g>
<!-- A2&#45;&gt;A9 -->
<g id="edge13" class="edge"><title>A2&#45;&gt;A9</title>
<path fill="none" stroke="black" d="M35.4704,-329.825C45.2672,-357.65 68.0605,-409.815 107.445,-433.5 188.436,-482.206 303.114,-476.624 369.307,-467.801"/>
<text text-anchor="middle" x="352.293" y="-475.314" font-family="Helvetica,sans-Serif" font-size="10.00">gives *</text>
<text text-anchor="middle" x="49.6784" y="-340.901" font-family="Helvetica,sans-Serif" font-size="10.00">is prescripted by 1</text>
</g>
<!-- A10 -->
<g id="node11" class="node"><title>A10</title>
<polygon fill="none" stroke="black" points="107.445,-348.5 107.445,-424.5 184.916,-424.5 184.916,-348.5 107.445,-348.5"/>
<text text-anchor="middle" x="146.18" y="-411.5" font-family="Helvetica,sans-Serif" font-size="10.00">Test</text>
<polyline fill="none" stroke="black" points="107.445,-404.5 184.916,-404.5 "/>
<text text-anchor="middle" x="146.18" y="-391.5" font-family="Helvetica,sans-Serif" font-size="10.00">date_taken</text>
<text text-anchor="middle" x="146.18" y="-379.5" font-family="Helvetica,sans-Serif" font-size="10.00">hospital</text>
<text text-anchor="middle" x="146.18" y="-367.5" font-family="Helvetica,sans-Serif" font-size="10.00">disease</text>
<text text-anchor="middle" x="146.18" y="-355.5" font-family="Helvetica,sans-Serif" font-size="10.00">result</text>
</g>
<!-- A2&#45;&gt;A10 -->
<g id="edge16" class="edge"><title>A2&#45;&gt;A10</title>
<path fill="none" stroke="black" d="M57.6717,-329.655C72.4876,-339.28 90.9073,-351.245 107.02,-361.712"/>
<text text-anchor="middle" x="87.2152" y="-355.926" font-family="Helvetica,sans-Serif" font-size="10.00"> performs *</text>
<text text-anchor="middle" x="77.4767" y="-329.441" font-family="Helvetica,sans-Serif" font-size="10.00">is performed by 1 </text>
</g>
<!-- A3 -->
<g id="node4" class="node"><title>A3</title>
<polygon fill="none" stroke="black" points="249.913,-152.5 249.913,-188.5 304.579,-188.5 304.579,-152.5 249.913,-152.5"/>
<text text-anchor="middle" x="277.246" y="-167.5" font-family="Helvetica,sans-Serif" font-size="10.00">Nurse</text>
</g>
<!-- A3&#45;&gt;A0 -->
<g id="edge3" class="edge"><title>A3&#45;&gt;A0</title>
<path fill="none" stroke="black" d="M304.099,-196.032C323.668,-215.358 351.092,-242.443 374.571,-265.63"/>
<polygon fill="none" stroke="black" points="306.323,-193.31 296.749,-188.773 301.404,-198.29 306.323,-193.31"/>
</g>
<!-- A3&#45;&gt;A7 -->
<g id="edge10" class="edge"><title>A3&#45;&gt;A7</title>
<path fill="none" stroke="black" d="M304.618,-172.518C325.94,-174.149 356.337,-176.474 380.86,-178.35"/>
<text text-anchor="middle" x="362.142" y="-182.395" font-family="Helvetica,sans-Serif" font-size="10.00">*</text>
<text text-anchor="middle" x="323.336" y="-162.473" font-family="Helvetica,sans-Serif" font-size="10.00">0..1</text>
</g>
<!-- A3&#45;&gt;A8 -->
<g id="edge12" class="edge"><title>A3&#45;&gt;A8</title>
<path fill="none" stroke="black" d="M305.006,-152.543C309.872,-149.229 314.889,-145.779 319.576,-142.5 337.284,-130.11 356.533,-116.3 373.516,-103.996"/>
<text text-anchor="middle" x="363.787" y="-118.47" font-family="Helvetica,sans-Serif" font-size="10.00"> works *</text>
<text text-anchor="middle" x="315.222" y="-132.348" font-family="Helvetica,sans-Serif" font-size="10.00">1</text>
</g>
<!-- A4 -->
<g id="node5" class="node"><title>A4</title>
<polygon fill="none" stroke="black" points="235.741,-246.5 235.741,-282.5 318.751,-282.5 318.751,-246.5 235.741,-246.5"/>
<text text-anchor="middle" x="277.246" y="-261.5" font-family="Helvetica,sans-Serif" font-size="10.00">Receptionist</text>
</g>
<!-- A4&#45;&gt;A0 -->
<g id="edge4" class="edge"><title>A4&#45;&gt;A0</title>
<path fill="none" stroke="black" d="M328.676,-281.336C343.651,-286.335 359.993,-291.79 374.759,-296.72"/>
<polygon fill="none" stroke="black" points="329.658,-277.973 319.064,-278.126 327.441,-284.613 329.658,-277.973"/>
</g>
<!-- A5 -->
<g id="node6" class="node"><title>A5</title>
<polygon fill="none" stroke="black" points="249.078,-340.5 249.078,-376.5 305.413,-376.5 305.413,-340.5 249.078,-340.5"/>
<text text-anchor="middle" x="277.246" y="-355.5" font-family="Helvetica,sans-Serif" font-size="10.00">Admin</text>
</g>
<!-- A5&#45;&gt;A0 -->
<g id="edge5" class="edge"><title>A5&#45;&gt;A0</title>
<path fill="none" stroke="black" d="M315.241,-346.664C333.341,-340.874 355.336,-333.837 374.649,-327.658"/>
<polygon fill="none" stroke="black" points="314.087,-343.359 305.629,-349.739 316.22,-350.026 314.087,-343.359"/>
</g>
<!-- A6 -->
<g id="node7" class="node"><title>A6</title>
<polygon fill="none" stroke="black" points="234.916,-81.5 234.916,-133.5 319.576,-133.5 319.576,-81.5 234.916,-81.5"/>
<text text-anchor="middle" x="277.246" y="-120.5" font-family="Helvetica,sans-Serif" font-size="10.00">Commitment</text>
<polyline fill="none" stroke="black" points="234.916,-113.5 319.576,-113.5 "/>
<text text-anchor="middle" x="277.246" y="-100.5" font-family="Helvetica,sans-Serif" font-size="10.00">start_time</text>
<text text-anchor="middle" x="277.246" y="-88.5" font-family="Helvetica,sans-Serif" font-size="10.00">end_time</text>
</g>
<!-- A6&#45;&gt;A7 -->
<g id="edge6" class="edge"><title>A6&#45;&gt;A7</title>
<path fill="none" stroke="black" d="M329.004,-133.624C345.875,-142.306 364.449,-151.866 380.534,-160.144"/>
<polygon fill="none" stroke="black" points="330.327,-130.368 319.834,-128.904 327.124,-136.592 330.327,-130.368"/>
</g>
<!-- A6&#45;&gt;A8 -->
<g id="edge7" class="edge"><title>A6&#45;&gt;A8</title>
<path fill="none" stroke="black" d="M329.559,-93.5817C343.929,-89.6841 359.496,-85.4615 373.687,-81.6123"/>
<polygon fill="none" stroke="black" points="328.569,-90.2237 319.834,-96.2196 330.402,-96.9796 328.569,-90.2237"/>
</g>
<!-- A10&#45;&gt;A1 -->
<g id="edge15" class="edge"><title>A10&#45;&gt;A1</title>
<path fill="none" stroke="black" d="M185.206,-394.455C205.134,-398.624 229.144,-403.646 247.502,-407.487"/>
<text text-anchor="middle" x="228.029" y="-409.049" font-family="Helvetica,sans-Serif" font-size="10.00"> is taken by 1</text>
<text text-anchor="middle" x="204.679" y="-386.893" font-family="Helvetica,sans-Serif" font-size="10.00">takes * </text>
</g>
</g>
</svg>
